<svg id="Capa_1" enable-background="new 0 0 512 512" height="512" viewBox="0 0 512 512" width="512" xmlns="http://www.w3.org/2000/svg"><g><g><g><path d="m462.292 100.298c-3.828-19.601-21.114-34.397-41.87-34.397-.03 0-.06.002-.09.002-3.644-13.176-15.73-22.856-30.089-22.856 0-23.522-19.103-42.59-42.667-42.59-22.097 0-40.27 16.768-42.448 38.252-2.761-.56-5.618-.856-8.544-.856-19.621 0-36.138 13.225-41.12 31.23-36.719 1.375-66.067 31.505-66.067 68.494 0 37.865 30.75 68.56 68.683 68.56h200.846c29.311 0 53.073-23.719 53.073-52.978.001-28.129-21.965-51.126-49.707-52.861z" fill="#d3effd"/></g><g><path d="m375.195 194.526c0-26.329-11.571-50.744-31.119-67.337-.274-35.385-29.197-64.087-64.708-64.087-4.173 0-8.326.405-12.397 1.199-2.352-1.852-4.779-3.598-7.254-5.27-1.822 3.122-3.265 6.491-4.251 10.052-36.719 1.375-66.067 31.505-66.067 68.494 0 37.865 30.75 68.56 68.683 68.56h116.326c.501-3.802.787-7.673.787-11.611z" fill="#b2e5fb"/></g><g><path d="m314.952 139.982c1.334-3.851 2.068-7.981 2.068-12.285 0-20.758-16.858-37.586-37.654-37.586-6.81 0-13.192 1.814-18.704 4.97-17.468-18.596-42.297-30.218-69.85-30.218-43.435 0-80.107 28.875-91.821 68.442-21.181 1.858-39.283 14.407-48.849 32.22-1.546-.159-3.115-.241-4.704-.241-25.094-.001-45.438 20.307-45.438 45.358s20.344 45.358 45.44 45.358h241.114c34.012 0 61.585-27.523 61.585-61.475-.001-23.723-13.472-44.294-33.187-54.543z" fill="#e6f7fe"/></g><g><path d="m314.952 139.982c1.334-3.851 2.068-7.981 2.068-12.285 0-20.758-16.858-37.586-37.654-37.586-.934 0-1.858.041-2.774.108 3.132 11.448 4.813 23.493 4.813 35.932 0 60.934-40.122 112.509-95.432 129.849h100.579c34.012 0 61.585-27.523 61.585-61.475.001-23.723-13.47-44.294-33.185-54.543z" fill="#d3effd"/></g></g><g><ellipse cx="432.911" cy="256" fill="#e6f7fe" rx="16.65" ry="16.621"/></g><g><ellipse cx="272.65" cy="338.065" fill="#e6f7fe" rx="16.65" ry="16.621"/></g><g><ellipse cx="495.35" cy="447.138" fill="#e6f7fe" rx="16.65" ry="16.621"/></g><g><ellipse cx="64.52" cy="305.862" fill="#e6f7fe" rx="16.65" ry="16.621"/></g><g><ellipse cx="373.594" cy="347.414" fill="#b2e5fb" rx="24.976" ry="24.931"/></g><g><ellipse cx="231.024" cy="486.612" fill="#e6f7fe" rx="24.976" ry="24.931"/></g><g><ellipse cx="205.008" cy="385.849" fill="#b2e5fb" rx="16.65" ry="16.621"/></g><g><ellipse cx="64.52" cy="486.612" fill="#b2e5fb" rx="24.976" ry="24.931"/></g><g><ellipse cx="188.358" cy="300.668" fill="#d3effd" rx="10.407" ry="10.388"/></g><g><ellipse cx="302.829" cy="404.547" fill="#d3effd" rx="10.407" ry="10.388"/></g><g><ellipse cx="342.374" cy="292.358" fill="#b2e5fb" rx="10.407" ry="10.388"/></g><g><ellipse cx="473.496" cy="331.832" fill="#b2e5fb" rx="10.407" ry="10.388"/></g><g><ellipse cx="145.691" cy="466.875" fill="#d3effd" rx="10.407" ry="10.388"/></g><g><ellipse cx="10.407" cy="350.53" fill="#d3effd" rx="10.407" ry="10.388"/></g><g><path d="m422.691 454.638h-80.744c-4.143 0-7.5-3.357-7.5-7.5s3.357-7.5 7.5-7.5h80.744c9.636 0 17.476-7.819 17.476-17.431s-7.84-17.432-17.476-17.432c-4.899 0-9.606 2.072-12.913 5.685-2.797 3.056-7.541 3.265-10.596.469-3.056-2.796-3.266-7.54-.469-10.596 6.141-6.71 14.88-10.558 23.978-10.558 17.907 0 32.476 14.549 32.476 32.432s-14.568 32.431-32.476 32.431z" fill="#b2e5fb"/></g><g><path d="m418.714 487.879h-19.599c-4.143 0-7.5-3.357-7.5-7.5s3.357-7.5 7.5-7.5h19.599c4.143 0 7.5 3.357 7.5 7.5s-3.358 7.5-7.5 7.5z" fill="#b2e5fb"/></g><g><path d="m366.016 487.879h-49.658c-4.143 0-7.5-3.357-7.5-7.5s3.357-7.5 7.5-7.5h49.658c4.143 0 7.5 3.357 7.5 7.5s-3.358 7.5-7.5 7.5z" fill="#b2e5fb"/></g><g><path d="m125.065 394.388h-80.744c-4.142 0-7.5-3.357-7.5-7.5s3.358-7.5 7.5-7.5h80.744c9.636 0 17.476-7.819 17.476-17.431s-7.839-17.432-17.476-17.432c-4.899 0-9.605 2.072-12.912 5.685-2.796 3.055-7.541 3.264-10.596.47-3.056-2.797-3.266-7.541-.469-10.597 6.14-6.71 14.879-10.558 23.977-10.558 17.907 0 32.476 14.549 32.476 32.432s-14.569 32.431-32.476 32.431z" fill="#d3effd"/></g><g><path d="m121.088 427.629h-19.6c-4.142 0-7.5-3.357-7.5-7.5s3.358-7.5 7.5-7.5h19.6c4.142 0 7.5 3.357 7.5 7.5s-3.358 7.5-7.5 7.5z" fill="#d3effd"/></g><g><path d="m68.39 427.629h-49.658c-4.142 0-7.5-3.357-7.5-7.5s3.358-7.5 7.5-7.5h49.658c4.142 0 7.5 3.357 7.5 7.5s-3.358 7.5-7.5 7.5z" fill="#d3effd"/></g></g></svg>